<svg width="401" height="193" viewBox="0 0 401 193" fill="none" xmlns="http://www.w3.org/2000/svg">
<path d="M33.6847 44.111L50.3489 1.06936H33.4174L25.1299 25.6646L16.9315 1.06936H0L16.6641 44.111H33.6847Z" transform="translate(132.309 83.71)" fill="black"/>
<path d="M93.4935 44.111V18.0899C93.4935 3.74275 83.0673 0 72.3737 0C65.8685 0 57.8483 1.87137 52.0559 6.50525L57.4918 16.3968C60.8781 13.8125 65.4229 12.2085 69.433 12.2085C74.6906 12.2085 77.4531 14.5254 77.4531 17.5553V22.0109C75.1362 19.0702 70.0568 17.2879 64.4426 17.2879C58.0265 17.2879 49.6499 20.3178 49.6499 31.0113C49.6499 40.8138 58.0265 45.1803 64.4426 45.1803C69.7894 45.1803 75.0471 43.0416 77.4531 40.0118V44.111H93.4935ZM71.1261 34.7541C68.4527 34.7541 65.512 33.9521 65.512 31.2787C65.512 28.6053 68.4527 27.7142 71.1261 27.7142C73.6213 27.7142 76.3838 28.5162 77.4531 30.0311V32.4371C76.3838 33.9521 73.6213 34.7541 71.1261 34.7541Z" transform="translate(132.309 83.71)" fill="black"/>
<path d="M101.032 60.8642C102.547 61.3098 106.111 61.5771 107.27 61.5771C116.359 61.3098 123.488 59.4384 127.32 49.4577L146.034 1.06936H129.103L120.815 25.6646L112.617 1.06936H95.6851L112.617 44.8239L112.26 45.715C111.725 46.8735 109.765 47.4081 106.646 47.4081C105.577 47.4081 104.24 47.1408 103.26 46.6061L101.032 60.8642Z" transform="translate(132.309 83.71)" fill="black"/>
<path d="M189.179 44.111V18.0899C189.179 3.74275 178.752 0 168.059 0C161.554 0 153.533 1.87137 147.741 6.50525L153.177 16.3968C156.563 13.8125 161.108 12.2085 165.118 12.2085C170.376 12.2085 173.138 14.5254 173.138 17.5553V22.0109C170.821 19.0702 165.742 17.2879 160.128 17.2879C153.712 17.2879 145.335 20.3178 145.335 31.0113C145.335 40.8138 153.712 45.1803 160.128 45.1803C165.475 45.1803 170.732 43.0416 173.138 40.0118V44.111H189.179ZM166.811 34.7541C164.138 34.7541 161.197 33.9521 161.197 31.2787C161.197 28.6053 164.138 27.7142 166.811 27.7142C169.306 27.7142 172.069 28.5162 173.138 30.0311V32.4371C172.069 33.9521 169.306 34.7541 166.811 34.7541Z" transform="translate(132.309 83.71)" fill="black"/>
<path d="M268.186 44.111V12.9214C268.186 4.01009 262.839 0 254.908 0C247.957 0 242.343 3.83186 239.848 7.57461C237.887 2.22783 233.521 0 227.461 0C220.51 0 215.074 3.56452 213.203 5.97057V1.06936H197.163V44.111H213.203V17.5553C214.272 16.3077 216.233 14.169 219.708 14.169C223.362 14.169 224.609 16.3968 224.609 18.9811V44.111H240.65V17.5553C241.719 16.3077 243.68 14.169 247.244 14.169C250.809 14.169 252.145 16.3968 252.145 18.9811V44.111H268.186Z" transform="translate(132.309 83.71)" fill="black"/>
<path d="M0 74.151V40.6017L58.0054 0L116.014 40.6017V72.6406H94.5639L58.0249 46.7489L42.8386 57.376L116.014 108.594V142.143L58.0054 182.745L0 142.143V110.095H21.0284L58.0054 135.984L73.175 125.369L0 74.151Z" transform="translate(3.84375 5.34131)" fill="black"/>
</svg>
